<?xml version="1.0" encoding="utf-8"?>
<!-- Generator: Adobe Illustrator 25.0.0, SVG Export Plug-In . SVG Version: 6.00 Build 0)  -->
<svg version="1.1" id="Layer_1" xmlns="http://www.w3.org/2000/svg" xmlns:xlink="http://www.w3.org/1999/xlink" x="0px" y="0px"
	 viewBox="0 0 512 213.7" style="enable-background:new 0 0 512 213.7;" xml:space="preserve">
<style type="text/css">
	.st0{fill:#00578C;}
	.st1{fill:#D0A82B;}
	.st2{fill-rule:evenodd;clip-rule:evenodd;fill:#00578C;}
	.st3{fill-rule:evenodd;clip-rule:evenodd;fill:#D0A82B;}
</style>
<g>
	<path class="st0" d="M490.56,135.84c0-1.89-0.67-3.51-2.02-4.86c-1.35-1.34-2.96-2.02-4.86-2.02h-4.58c-1.89,0-3.51,0.67-4.86,2.02
		c-1.35,1.35-2.02,2.96-2.02,4.86H490.56z M483.69,119.8c4.42,0,8.21,1.57,11.34,4.7c3.13,3.13,4.7,6.91,4.7,11.34v10.31l-9.16,9.16
		V145h-18.33v6.87h-9.16v-16.04c0-4.43,1.56-8.21,4.7-11.34c3.13-3.13,6.9-4.7,11.34-4.7H483.69z M460.78,151.88h-9.16v-26.34
		l9.16-9.16V151.88z M412.68,128.97v-3.43l9.16-9.16v12.6c0,3.43,0.67,6.19,2.02,8.3c1.34,2.1,3.72,3.85,7.15,5.22
		c3.42-1.38,5.8-3.12,7.15-5.22c1.34-2.11,2.02-4.87,2.02-8.3v-9.16h9.16v9.16c0,5.96-1.57,10.88-4.7,14.78
		c-3.13,3.89-7.67,6.61-13.63,8.13c-5.96-1.52-10.5-4.24-13.63-8.13C414.24,139.85,412.68,134.92,412.68,128.97z M402.37,135.84
		c0-1.89-0.67-3.51-2.02-4.86c-1.35-1.34-2.96-2.02-4.86-2.02h-4.58c-1.89,0-3.51,0.67-4.86,2.02c-1.35,1.35-2.02,2.96-2.02,4.86
		H402.37z M395.5,119.8c4.42,0,8.21,1.57,11.34,4.7c3.13,3.13,4.7,6.91,4.7,11.34v10.31l-9.16,9.16V145h-18.33v6.87h-9.16v-16.04
		c0-4.43,1.56-8.21,4.7-11.34c3.13-3.13,6.9-4.7,11.34-4.7H395.5z M363.44,138.52v-22.15l9.16,9.16v26.34h-8.78l-18.71-18.72v22.15
		l-9.16-9.16V119.8h8.77L363.44,138.52z M333.65,151.88h-9.16v-26.34l9.16-9.16V151.88z M306.17,151.88h-1.15l-9.16-9.16h10.31
		c1.89,0,3.51-0.67,4.86-2.02c1.34-1.35,2.02-2.96,2.02-4.86c0-1.89-0.67-3.51-2.02-4.86c-1.35-1.34-2.96-2.02-4.86-2.02h-11.45
		v26.34l-9.16-9.16V119.8h20.62c4.43,0,8.21,1.57,11.34,4.7c3.13,3.13,4.7,6.91,4.7,11.34c0,4.43-1.57,8.21-4.7,11.34
		C314.38,150.31,310.6,151.88,306.17,151.88z M274.11,138.52v-22.15l9.16,9.16v26.34h-8.78l-18.71-18.72v22.15l-9.16-9.16V119.8
		h8.77L274.11,138.52z M235.17,135.84c0-1.89-0.67-3.51-2.02-4.86c-1.34-1.34-2.96-2.02-4.86-2.02h-4.58
		c-1.89,0-3.51,0.67-4.86,2.02c-1.35,1.35-2.02,2.96-2.02,4.86H235.17z M228.3,119.8c4.43,0,8.21,1.57,11.34,4.7
		c3.13,3.13,4.7,6.91,4.7,11.34v10.31l-9.16,9.16V145h-18.33v6.87h-9.16v-16.04c0-4.43,1.56-8.21,4.7-11.34
		c3.13-3.13,6.9-4.7,11.34-4.7H228.3z M184.78,142.71h20.62v9.16h-20.62c-4.43,0-8.21-1.56-11.34-4.7c-3.14-3.13-4.7-6.9-4.7-11.34
		c0-4.43,1.56-8.21,4.7-11.34c3.13-3.13,6.9-4.7,11.34-4.7h25.19l-9.16,9.16h-16.04c-1.89,0-3.51,0.67-4.85,2.02
		c-1.34,1.35-2.02,2.96-2.02,4.86c0,1.89,0.67,3.51,2.02,4.86C181.27,142.04,182.88,142.71,184.78,142.71z M171.03,119.8l-9.16,9.16
		h-21.77c-0.32,0-0.59,0.11-0.81,0.34c-0.22,0.22-0.33,0.49-0.33,0.81c0,0.32,0.11,0.59,0.33,0.81c0.23,0.22,0.49,0.33,0.81,0.33
		h16.04c2.84,0,5.27,1.01,7.29,3.03c2.02,2.02,3.03,4.44,3.03,7.29c0,2.84-1.01,5.26-3.03,7.28c-2.02,2.02-4.45,3.03-7.29,3.03
		h-30.92l9.16-9.16h21.76c0.32,0,0.59-0.11,0.81-0.33c0.22-0.23,0.34-0.49,0.34-0.81c0-0.32-0.12-0.59-0.34-0.81
		c-0.22-0.23-0.49-0.34-0.81-0.34h-16.04c-2.84,0-5.26-1.01-7.28-3.03c-2.02-2.01-3.03-4.44-3.03-7.28c0-2.85,1.01-5.27,3.03-7.29
		c2.02-2.02,4.44-3.03,7.28-3.03H171.03z"/>
	<path class="st1" d="M282.2,164.17v10.08h-0.05v3.36h0.05v10.08h3.36v-23.52H282.2z M267.64,187.69h3.36v-23.52h-3.36V187.69z
		 M280.18,177.61v-3.36h-7.21v3.36H280.18z M227.55,184.61c-4.79,0-8.68-3.89-8.68-8.68c0-4.79,3.89-8.67,8.68-8.67
		c2.66,0,4.52,0.87,6.12,2.52l1.44-3.15c-1.96-1.82-4.79-2.73-7.35-2.73c-6.75,0-12.25,5.39-12.25,12.04
		c0,6.65,5.49,12.04,12.25,12.04c2.56,0,5.39-0.94,7.35-2.76l-1.44-3.15C232.07,183.73,230.21,184.61,227.55,184.61z M174.39,184.32
		h-3.36v3.37h13.44v-3.36h-10.08V184.32z M182.79,177.61v-3.31h-11.76v3.31H182.79z M171.03,164.17v3.36h13.44v-3.36H171.03z
		 M134.74,187.69v-18.3h-3.36v18.3H134.74z M140.9,167.47v-3.3h-15.68v3.3H140.9z"/>
	<path class="st2" d="M12.28,56.9l13.54,13.47c29.69-14.9,66.69-14.9,96.37,0l13.54-13.47l-14.75-38.36l1.7,26.92l-11.25,11.66
		C98.71,42.44,87.75,42.17,74.12,28.93l-0.12,0.12l-0.12-0.12C60.26,42.17,49.31,42.44,36.58,57.12L25.33,45.46l1.7-26.92
		L12.28,56.9z"/>
	<path class="st3" d="M27.06,76.57L39.8,89.93c6.09-3.4,19.79-6.64,25.45-5.81l0.11,61.19l8.64,9.9l8.64-9.9l0.11-61.19
		c5.66-0.83,19.36,2.4,25.45,5.81l12.74-13.36C92.11,61.9,55.91,61.9,27.06,76.57"/>
	<polygon class="st2" points="36.82,154.36 70.83,187.97 70.88,164.12 54.82,147.02 54.45,122.92 18.16,84.45 18.78,108.52 
		36.13,127.34 	"/>
	<polygon class="st2" points="111.2,154.36 77.18,187.97 77.14,164.12 93.2,147.02 93.57,122.92 129.85,84.45 129.24,108.52 
		111.88,127.34 	"/>
</g>
</svg>
