<?xml version="1.0" encoding="utf-8"?>
<!-- Generator: Adobe Illustrator 25.0.0, SVG Export Plug-In . SVG Version: 6.00 Build 0)  -->
<svg version="1.1" id="Layer_1" xmlns="http://www.w3.org/2000/svg" xmlns:xlink="http://www.w3.org/1999/xlink" x="0px" y="0px"
	 viewBox="0 0 512 512" style="enable-background:new 0 0 512 512;" xml:space="preserve">
<style type="text/css">
	.st0{fill:#00578C;}
	.st1{fill:#D0A82B;}
	.st2{fill-rule:evenodd;clip-rule:evenodd;fill:#00578C;}
	.st3{fill-rule:evenodd;clip-rule:evenodd;fill:#D0A82B;}
</style>
<g>
	<path class="st2" d="M74.32,119.57l39.86,39.64c87.37-43.85,196.27-43.86,283.64,0l39.86-39.64L394.27,6.68l4.99,79.23
		l-33.12,34.32c-37.45-43.23-69.69-44.01-109.81-82.98L256,37.61l-0.34-0.36c-40.11,38.97-72.36,39.76-109.81,82.98l-33.12-34.32
		l4.99-79.23L74.32,119.57z"/>
	<path class="st3" d="M117.84,177.46l37.5,39.33c17.93-10.02,58.23-19.54,74.9-17.09l0.33,180.09L256,408.93l25.43-29.14
		l0.33-180.09c16.67-2.45,56.97,7.07,74.9,17.09l37.5-39.33C309.27,134.28,202.73,134.28,117.84,177.46"/>
	<polygon class="st2" points="146.55,406.41 246.66,505.32 246.79,435.15 199.52,384.8 198.43,313.88 91.64,200.65 93.46,271.5 
		144.53,326.88 	"/>
	<polygon class="st2" points="365.45,406.41 265.34,505.32 265.21,435.15 312.48,384.8 313.57,313.88 420.35,200.65 418.54,271.5 
		367.47,326.88 	"/>
</g>
</svg>
